<svg xmlns="http://www.w3.org/2000/svg" width="20" height="20" viewBox="0 0 20 20">
  <path id="exclude" d="M15,13a.945.945,0,0,0-1,1h0a1,1,0,0,0,0,2h1a.945.945,0,0,0,1-1V14a.945.945,0,0,0-1-1Zm1-4a.945.945,0,0,0-1-1H14a.945.945,0,0,0-1,1,.945.945,0,0,0,1,1,1,1,0,0,0,2,0Zm0-6a.945.945,0,0,0-1-1H3A.945.945,0,0,0,2,3V15a.945.945,0,0,0,1,1H6V8A2.006,2.006,0,0,1,8,6h8Zm5,5H18v8a2.006,2.006,0,0,1-2,2H8v3a.945.945,0,0,0,1,1H21a.945.945,0,0,0,1-1V9A.945.945,0,0,0,21,8ZM10,8H9A.945.945,0,0,0,8,9v1a.945.945,0,0,0,1,1,.945.945,0,0,0,1-1,.945.945,0,0,0,1-1A.945.945,0,0,0,10,8Zm0,6a.945.945,0,0,0-1-1,.945.945,0,0,0-1,1v1a.945.945,0,0,0,1,1h1a1,1,0,0,0,0-2Z" transform="translate(-2 -2)" fill="#ef233c"/>
</svg>