<svg xmlns="http://www.w3.org/2000/svg" width="20" height="20" viewBox="0 0 20 20">
  <path id="vector-square" d="M20,16.2V7.8A2.913,2.913,0,0,0,22,5a2.946,2.946,0,0,0-3-3,2.913,2.913,0,0,0-2.8,2H7.8A2.913,2.913,0,0,0,5,2,2.946,2.946,0,0,0,2,5,2.913,2.913,0,0,0,4,7.8v8.4A2.913,2.913,0,0,0,2,19a2.946,2.946,0,0,0,3,3,2.913,2.913,0,0,0,2.8-2h8.4A2.913,2.913,0,0,0,19,22a2.946,2.946,0,0,0,3-3A2.913,2.913,0,0,0,20,16.2ZM16.2,18H7.8A3.187,3.187,0,0,0,6,16.2V7.8A3.187,3.187,0,0,0,7.8,6h8.4A3.187,3.187,0,0,0,18,7.8v8.4A3.187,3.187,0,0,0,16.2,18ZM19,4a.945.945,0,0,1,1,1,1,1,0,0,1-2,0A.945.945,0,0,1,19,4ZM5,4A.945.945,0,0,1,6,5,.945.945,0,0,1,5,6,.945.945,0,0,1,4,5,.945.945,0,0,1,5,4ZM5,20a1,1,0,0,1,0-2,1,1,0,0,1,0,2Zm14,0a1,1,0,1,1,1-1A.945.945,0,0,1,19,20Z" transform="translate(-2 -2)" fill="#ef233c"/>
</svg>