<svg xmlns="http://www.w3.org/2000/svg" width="22.627" height="22.627" viewBox="0 0 22.627 22.627">
  <path id="arrows-shrink-h" d="M17.7,11.3,15.2,8.8a.99.99,0,0,0-1.4,1.4l.8.8H9.4l.8-.8A.99.99,0,0,0,8.8,8.8L6.3,11.3h0c-.1.1-.2.2-.2.3A.6.6,0,0,0,6,12H6a.6.6,0,0,0,.1.4c.1.1.1.2.2.3l2.5,2.5a.967.967,0,0,0,1.4,0,.967.967,0,0,0,0-1.4L9.4,13h5.2l-.8.8a.908.908,0,0,0-.3.7.945.945,0,0,0,1,1,.908.908,0,0,0,.7-.3l2.5-2.5h0c.1-.1.2-.2.2-.3s.1-.2.1-.4h0a.6.6,0,0,0-.1-.4C17.9,11.5,17.8,11.4,17.7,11.3ZM3,6A.945.945,0,0,0,2,7V17a.945.945,0,0,0,1,1H3a.945.945,0,0,0,1-1V7A.945.945,0,0,0,3,6ZM21,6a.945.945,0,0,0-1,1V17a.945.945,0,0,0,1,1h0a.945.945,0,0,0,1-1V7A.945.945,0,0,0,21,6Z" transform="translate(-5.657 11.314) rotate(-45)" fill="#ef233c"/>
</svg>