<svg xmlns="http://www.w3.org/2000/svg" width="13.192" height="12" viewBox="0 0 13.192 12">
  <path id="atom" d="M14.638,5.3c-.462-.857-1.583-1.253-3.1-1.055h-.132C10.812,2.857,9.955,2,8.9,2s-1.913.857-2.506,2.243H6.261c-1.517-.2-2.572.2-3.1,1.055-.528.923-.2,2.111.66,3.3-.923,1.187-1.187,2.375-.66,3.3A2.732,2.732,0,0,0,5.6,13.015a2.474,2.474,0,0,0,.66-.066h.132c.594,1.385,1.451,2.243,2.506,2.243s1.913-.857,2.506-2.243h.132c.2,0,.4.066.66.066a2.587,2.587,0,0,0,2.44-1.121c.528-.923.2-2.111-.66-3.3A3.235,3.235,0,0,0,14.638,5.3ZM4.348,11.234c-.2-.33,0-.923.462-1.649.33.264.594.528.923.792A8.482,8.482,0,0,0,6,11.63C5.14,11.7,4.546,11.564,4.348,11.234ZM5.734,6.749a11.484,11.484,0,0,0-.923.792c-.528-.66-.66-1.253-.462-1.583S5.14,5.5,6,5.5A10.717,10.717,0,0,0,5.734,6.749ZM8.9,3.319c.4,0,.792.462,1.187,1.187A8.809,8.809,0,0,0,8.9,4.968a8.354,8.354,0,0,0-1.187-.4C8.108,3.781,8.5,3.319,8.9,3.319Zm0,10.554c-.4,0-.792-.462-1.187-1.187l1.187-.4a8.354,8.354,0,0,0,1.187.4C9.691,13.411,9.3,13.873,8.9,13.873Zm1.913-4.155c-.264.2-.594.4-.923.594s-.66.33-.989.528a7.209,7.209,0,0,1-.989-.528c-.33-.2-.66-.4-.923-.594A6.035,6.035,0,0,1,6.921,8.6a6.035,6.035,0,0,1,.066-1.121c.264-.2.594-.4.923-.594s.66-.33.989-.528a7.209,7.209,0,0,1,.989.528c.33.2.66.4.923.594,0,.33.066.726.066,1.121A6.035,6.035,0,0,1,10.812,9.717Zm2.638,1.517c-.2.33-.792.462-1.649.462a7.006,7.006,0,0,0,.264-1.253,11.484,11.484,0,0,0,.923-.792C13.517,10.311,13.649,10.9,13.451,11.234Zm-.462-3.628c-.33-.264-.594-.528-.923-.792A8.482,8.482,0,0,0,11.8,5.562a1.841,1.841,0,0,1,1.649.462C13.649,6.287,13.517,6.881,12.989,7.607ZM8.9,7.936a.66.66,0,1,0,.66.66A.623.623,0,0,0,8.9,7.936Z" transform="translate(15.192 -2.892) rotate(90)" fill="#8d99ae"/>
</svg>