<svg xmlns="http://www.w3.org/2000/svg" width="19.925" height="20.063" viewBox="0 0 19.925 20.063">
  <path id="tablets" d="M20.5,3.5h0a4.951,4.951,0,0,0-7.1,0,4.951,4.951,0,0,0,0,7.1,4.951,4.951,0,0,0,7.1,0A4.951,4.951,0,0,0,20.5,3.5Zm-.7,2.1L15.6,9.8a.99.99,0,0,1-1.4-1.4l4.2-4.2a.99.99,0,0,1,1.4,1.4Zm-16,6.2a6.1,6.1,0,0,0,0,8.5,6.01,6.01,0,0,0,8.5-8.5A5.917,5.917,0,0,0,3.8,11.8Zm7.7,7.7a.967.967,0,0,1-1.4,0L4.4,13.8a.99.99,0,0,1,1.4-1.4l5.7,5.7A.967.967,0,0,1,11.5,19.5Z" transform="translate(-2.075 -2)" fill="#ef233c"/>
</svg>