<svg xmlns="http://www.w3.org/2000/svg" width="20" height="18.076" viewBox="0 0 20 18.076">
  <path id="exclamation-triangle" d="M20.623,16.024,13.3,3.359a2.77,2.77,0,0,0-3.709-1,2.616,2.616,0,0,0-1,1L1.264,16.024a2.77,2.77,0,0,0,1,3.709,2.553,2.553,0,0,0,1.357.362H18.18a2.722,2.722,0,0,0,2.714-2.714A2.164,2.164,0,0,0,20.623,16.024Zm-9.68.452a.9.9,0,1,1,.9-.9A.855.855,0,0,1,10.943,16.476Zm.9-4.523a.9.9,0,1,1-1.809,0V8.334a.9.9,0,1,1,1.809,0Z" transform="translate(-0.918 -2.018)" fill="#ef233c"/>
</svg>
