<svg xmlns="http://www.w3.org/2000/svg" width="16" height="16" viewBox="0 0 16 16">
  <path id="brightness" d="M10,5.6A4.4,4.4,0,1,0,14.4,10,4.439,4.439,0,0,0,10,5.6Zm0-1.2h0a.756.756,0,0,0,.8-.8V2.8a.8.8,0,1,0-1.6,0v.8A.756.756,0,0,0,10,4.4Zm0,11.2a.756.756,0,0,0-.8.8v.8a.756.756,0,0,0,.8.8h0a.756.756,0,0,0,.8-.8v-.8A.756.756,0,0,0,10,15.6Zm7.2-6.4h-.8a.8.8,0,0,0,0,1.6h.8a.8.8,0,0,0,0-1.6ZM4.4,10a.756.756,0,0,0-.8-.8H2.8a.8.8,0,1,0,0,1.6h.8A.756.756,0,0,0,4.4,10Zm10.72,4A.792.792,0,0,0,14,15.12l.56.56a.726.726,0,0,0,.56.24h0a.726.726,0,0,0,.56-.24.773.773,0,0,0,0-1.12ZM4.88,6a.726.726,0,0,0,.56.24h0A.726.726,0,0,0,6,6,.773.773,0,0,0,6,4.88l-.56-.56A.792.792,0,0,0,4.32,5.44Zm0,8-.56.56a.726.726,0,0,0-.24.56.756.756,0,0,0,.8.8.726.726,0,0,0,.56-.24L6,15.12A.792.792,0,0,0,4.88,14Zm9.68-7.76A.726.726,0,0,0,15.12,6l.56-.56a.792.792,0,0,0-1.12-1.12L14,4.88a.726.726,0,0,0-.24.56A.756.756,0,0,0,14.56,6.24Z" transform="translate(-2 -2)" fill="#8d99ae"/>
</svg>
