<svg xmlns="http://www.w3.org/2000/svg" width="20" height="17" viewBox="0 0 20 17">
  <path id="camera" d="M12,11a2,2,0,1,0,2,2A2.006,2.006,0,0,0,12,11Zm7-4H17.7l-.3-.9a2.994,2.994,0,0,0-.4-.8V5.2l-.1-.1A2.99,2.99,0,0,0,14.6,4H9.4a2.7,2.7,0,0,0-1.5.5c-.1,0-.1.1-.2.1h0A3.269,3.269,0,0,0,6.6,6.1L6.3,7H5a2.946,2.946,0,0,0-3,3v8a2.946,2.946,0,0,0,3,3H19a2.946,2.946,0,0,0,3-3V10A2.946,2.946,0,0,0,19,7ZM12,17a4,4,0,1,1,4-4A4.012,4.012,0,0,1,12,17Z" transform="translate(-2 -4)" fill="#ef233c"/>
</svg>
