<svg xmlns="http://www.w3.org/2000/svg" width="16" height="20" viewBox="0 0 16 20">
  <path id="database" d="M12,2C8,2,4,3.4,4,6v5.2c0,1.2,3.1,2.9,8,2.9s8-1.7,8-2.9V6C20,3.4,16,2,12,2ZM8,11.5a.945.945,0,0,1-1-1,.945.945,0,0,1,1-1,.945.945,0,0,1,1,1A.945.945,0,0,1,8,11.5ZM12,8C8.3,8,6,6.7,6,6s2.3-2,6-2,6,1.3,6,2S15.7,8,12,8Zm0,8a14.813,14.813,0,0,1-8-1.9V18c0,2.6,4,4,8,4s8-1.4,8-4V14.1A14.813,14.813,0,0,1,12,16ZM8,19.5a1,1,0,0,1,0-2,1,1,0,0,1,0,2Z" transform="translate(-4 -2)" fill="#ef233c"/>
</svg>
