<svg xmlns="http://www.w3.org/2000/svg" width="20.008" height="20" viewBox="0 0 20.008 20">
  <path id="history" d="M17,3.3A10.123,10.123,0,0,0,5.1,4.8V3a.945.945,0,0,0-1-1,.945.945,0,0,0-1,1V7.5a.945.945,0,0,0,1,1H8.6a.945.945,0,0,0,1-1,.945.945,0,0,0-1-1H6.2A7.941,7.941,0,0,1,12,4a8,8,0,1,1-8,8,.945.945,0,0,0-1-1,.945.945,0,0,0-1,1,10.025,10.025,0,0,0,18.7,5A10.1,10.1,0,0,0,17,3.3ZM12,8a.945.945,0,0,0-1,1v3a.945.945,0,0,0,1,1h2a1,1,0,0,0,0-2H13V9A.945.945,0,0,0,12,8Z" transform="translate(-2 -2)" fill="#fff"/>
</svg>