<svg xmlns="http://www.w3.org/2000/svg" width="16" height="16" viewBox="0 0 16 16">
  <path id="exposure-alt" d="M15.6,2H4.4A2.357,2.357,0,0,0,2,4.4V15.6A2.357,2.357,0,0,0,4.4,18H15.6A2.357,2.357,0,0,0,18,15.6V4.4A2.357,2.357,0,0,0,15.6,2ZM6,5.2H9.2A.756.756,0,0,1,10,6a.756.756,0,0,1-.8.8H6A.756.756,0,0,1,5.2,6,.756.756,0,0,1,6,5.2ZM16.4,15.6a.756.756,0,0,1-.8.8H4.4a.726.726,0,0,1-.56-.24L16.16,3.84a.726.726,0,0,1,.24.56ZM14,12.4h-.8v-.8a.8.8,0,0,0-1.6,0v.8h-.8a.8.8,0,0,0,0,1.6h.8v.8a.8.8,0,0,0,1.6,0V14H14a.8.8,0,1,0,0-1.6Z" transform="translate(-2 -2)" fill="#8d99ae"/>
</svg>
