<svg xmlns="http://www.w3.org/2000/svg" width="196" height="62.72" viewBox="0 0 196 62.72">
  <g id="Group_68" data-name="Group 68" transform="translate(-86.78 -324.274)" style="isolation: isolate">
    <g id="Group_170" data-name="Group 170">
      <path id="Path_11" data-name="Path 11" d="M272.034,386.994a.441.441,0,0,1-.447-.437V375.594l-1.052,1.028a.468.468,0,0,1-.632,0l-1.128-1.1v11.011a.447.447,0,0,1-.894,0V374.646l-10.017-9.785-26.509,8.086a.452.452,0,0,1-.49-.154l-16.406-21.2-19.747-.124-16.408,21.2a.45.45,0,0,1-.49.154L151.4,364.762,127.958,377.98a.458.458,0,0,1-.447,0l-23.45-13.223a.435.435,0,0,1-.224-.378V338.192L87.012,329.18a.432.432,0,0,1-.177-.593.453.453,0,0,1,.607-.173l16.837,9.019,23.232-13.1a.455.455,0,0,1,.447,0l23.149,13.053,26.707-8.147a.452.452,0,0,1,.49.153l16.411,21.2,19.747.124,16.4-21.2a.455.455,0,0,1,.49-.153l26.767,8.164a.438.438,0,0,1,.314.417v26.239l10.208,9.971.013.013,1.562,1.526,1.5-1.465,0,0,10.3-10.056a.454.454,0,0,1,.632,0,.429.429,0,0,1,0,.617l-10.168,9.931v11.837A.441.441,0,0,1,272.034,386.994Zm-167.3-22.867,23,12.971,23-12.971V338.185l-23-12.971-23,12.971Zm110.511-12.971,16.146,20.866,26.153-7.977V338.267l-26.153-7.977Zm-63.611,12.762,26.149,7.977,16.15-20.867-16.15-20.866-26.149,7.976Z" fill="#dde0e6"/>
      <path id="Path_12" data-name="Path 12" d="M154.722,378.517a.222.222,0,0,1-.112-.414l17.556-10.134a.222.222,0,1,1,.222.384l-17.556,10.134A.217.217,0,0,1,154.722,378.517Zm102.4-4.933a.221.221,0,0,1-.177-.088l-12.223-16.171a.222.222,0,1,1,.354-.268l12.223,16.17a.223.223,0,0,1-.177.356Zm-53.305-.032a.219.219,0,0,1-.133-.045.222.222,0,0,1-.044-.311l12.223-16.17a.222.222,0,1,1,.354.268L204,373.464A.222.222,0,0,1,203.822,373.552Zm-69.46-6.53a.222.222,0,0,1-.222-.222V346.531a.222.222,0,1,1,.444,0V366.8A.222.222,0,0,1,134.361,367.023Zm37.321-22.377a.224.224,0,0,1-.111-.03l-17.552-10.134a.222.222,0,0,1,.222-.385l17.552,10.135a.222.222,0,0,1-.111.415Z" transform="translate(-26.31 -5.44)" fill="#dde0e6"/>
    </g>
  </g>
</svg>