<svg xmlns="http://www.w3.org/2000/svg" width="16" height="16" viewBox="0 0 16 16">
  <path id="image-resize-square" d="M2.8,3.6a.756.756,0,0,0,.8-.8A.756.756,0,0,0,2.8,2a.756.756,0,0,0-.8.8A.756.756,0,0,0,2.8,3.6Zm0,3.2A.756.756,0,0,0,3.6,6a.756.756,0,0,0-.8-.8A.756.756,0,0,0,2,6,.756.756,0,0,0,2.8,6.8ZM17.2,3.6a.756.756,0,0,0,.8-.8.8.8,0,1,0-1.6,0A.756.756,0,0,0,17.2,3.6ZM6.4,3.6a.756.756,0,0,0,.8-.8A.756.756,0,0,0,6.4,2a.756.756,0,0,0-.8.8A.756.756,0,0,0,6.4,3.6Zm3.6,0a.756.756,0,0,0,.8-.8.8.8,0,1,0-1.6,0A.756.756,0,0,0,10,3.6Zm7.2,12.8a.8.8,0,1,0,.8.8A.756.756,0,0,0,17.2,16.4Zm0-7.2a.8.8,0,1,0,.8.8A.756.756,0,0,0,17.2,9.2Zm0-4a.756.756,0,0,0-.8.8A.8.8,0,1,0,18,6,.756.756,0,0,0,17.2,5.2ZM10.8,8.4h-8a.756.756,0,0,0-.8.8v8a.756.756,0,0,0,.8.8h8a.756.756,0,0,0,.8-.8v-8A.756.756,0,0,0,10.8,8.4ZM10,12.72l-.56-.56a1.883,1.883,0,0,0-2.64,0l-3.2,3.2V10H10Zm7.2.08a.8.8,0,1,0,.8.8A.756.756,0,0,0,17.2,12.8Zm-2.8-10a.8.8,0,1,0-1.6,0,.8.8,0,1,0,1.6,0ZM14,16.4a.8.8,0,1,0,.8.8A.756.756,0,0,0,14,16.4Z" transform="translate(-2 -2)" fill="#8d99ae"/>
</svg>
