<svg xmlns="http://www.w3.org/2000/svg" width="19.643" height="20" viewBox="0 0 19.643 20">
  <path id="setting" d="M20.3,12.7a1.051,1.051,0,0,1,0-1.3L21.6,10a1.048,1.048,0,0,0,.1-1.2l-2-3.5a.948.948,0,0,0-1.1-.5l-1.9.4a.921.921,0,0,1-1.1-.7L15,2.7A1.2,1.2,0,0,0,14,2H10a.961.961,0,0,0-.9.7L8.4,4.5a.921.921,0,0,1-1.1.7L5.4,4.8a1.069,1.069,0,0,0-1.1.5l-2,3.5a.937.937,0,0,0,.2,1.1l1.3,1.4a1.051,1.051,0,0,1,0,1.3L2.5,14a1.048,1.048,0,0,0-.1,1.2l2,3.5a.948.948,0,0,0,1.1.5l1.9-.4a.921.921,0,0,1,1.1.7l.6,1.8a.961.961,0,0,0,.9.7h4a.961.961,0,0,0,.9-.7l.6-1.8a1.033,1.033,0,0,1,1.1-.7l1.9.4a1,1,0,0,0,1.1-.5l2-3.5a1.063,1.063,0,0,0-.1-1.2ZM12,15a3,3,0,1,1,3-3A2.946,2.946,0,0,1,12,15Z" transform="translate(-2.196 -2)" fill="#fff"/>
</svg>