<svg xmlns="http://www.w3.org/2000/svg" width="20" height="20" viewBox="0 0 20 20">
  <path id="sliders-v" d="M5,10H5a.945.945,0,0,0-1,1V21a.945.945,0,0,0,1,1,.945.945,0,0,0,1-1V11A.945.945,0,0,0,5,10ZM7,6H6V3A.945.945,0,0,0,5,2,.945.945,0,0,0,4,3V6H3A.945.945,0,0,0,2,7,.945.945,0,0,0,3,8H7A.945.945,0,0,0,8,7,.945.945,0,0,0,7,6Zm5,12h0a.945.945,0,0,0-1,1v2a1,1,0,0,0,2,0V19A.945.945,0,0,0,12,18Zm9-8H20V3a1,1,0,0,0-2,0v7H17a.945.945,0,0,0-1,1,.945.945,0,0,0,1,1h4a.945.945,0,0,0,1-1A.945.945,0,0,0,21,10Zm-2,4h0a.945.945,0,0,0-1,1v6a1,1,0,0,0,2,0V15A.945.945,0,0,0,19,14Zm-5,0H13V3a1,1,0,0,0-2,0V14H10a1,1,0,0,0,0,2h4a1,1,0,0,0,0-2Z" transform="translate(-2 -2)" fill="#fff"/>
</svg>
