<svg xmlns="http://www.w3.org/2000/svg" width="21.815" height="17" viewBox="0 0 21.815 17">
  <path id="users-alt" d="M8.5,11.5a4,4,0,1,0-4-4A4.012,4.012,0,0,0,8.5,11.5Zm4.5-.9a3.982,3.982,0,1,0,5-6.2,3.922,3.922,0,0,0-5,0,3.969,3.969,0,0,1,.6,5.6C13.5,10.2,13.2,10.4,13,10.6Zm9.9,8.8A7.516,7.516,0,0,0,15.5,13a6.9,6.9,0,0,0-2.5.4,7.431,7.431,0,0,1,4.9,5.9.945.945,0,0,1-.9,1.1h4.9a.945.945,0,0,0,1-1ZM8.5,13a7.44,7.44,0,0,0-7.4,6.4A.945.945,0,0,0,2,20.5H14.9a.945.945,0,0,0,1-1v-.1A7.44,7.44,0,0,0,8.5,13Z" transform="translate(-1.085 -3.5)" fill="#ef233c"/>
</svg>