<svg xmlns="http://www.w3.org/2000/svg" width="16" height="14.461" viewBox="0 0 16 14.461">
  <path id="exclamation-triangle" d="M16.682,13.222,10.82,3.091a2.216,2.216,0,0,0-2.967-.8,2.093,2.093,0,0,0-.8.8L1.195,13.222a2.216,2.216,0,0,0,.8,2.967,2.042,2.042,0,0,0,1.086.289H14.728A2.177,2.177,0,0,0,16.9,14.308,1.731,1.731,0,0,0,16.682,13.222Zm-7.744.362a.724.724,0,1,1,.724-.724A.684.684,0,0,1,8.938,13.584Zm.724-3.619a.724.724,0,0,1-1.447,0V7.071a.724.724,0,0,1,1.447,0Z" transform="translate(-0.918 -2.018)" fill="#ef233c"/>
</svg>